M48
; DRILL file {KiCad 9.0.4} date 2025-11-09T11:02:22-0700
; FORMAT={-:-/ absolute / metric / decimal}
; #@! TF.CreationDate,2025-11-09T11:02:22-07:00
; #@! TF.GenerationSoftware,Kicad,Pcbnew,9.0.4
; #@! TF.FileFunction,Plated,1,4,PTH
FMAT,2
METRIC
; #@! TA.AperFunction,Plated,PTH,ViaDrill
T1C0.300
; #@! TA.AperFunction,Plated,PTH,ComponentDrill
T2C0.600
; #@! TA.AperFunction,Plated,PTH,ComponentDrill
T3C0.750
; #@! TA.AperFunction,Plated,PTH,ComponentDrill
T4C0.800
; #@! TA.AperFunction,Plated,PTH,ComponentDrill
T5C0.850
; #@! TA.AperFunction,Plated,PTH,ComponentDrill
T6C1.000
; #@! TA.AperFunction,Plated,PTH,ComponentDrill
T7C1.300
; #@! TA.AperFunction,Plated,PTH,ComponentDrill
T8C1.600
%
G90
G05
T1
X93.6Y-143.3
X93.9Y-135.1
X93.95Y-121.182
X93.95Y-128.582
X94.25Y-131.482
X94.35Y-119.182
X94.35Y-123.382
X94.45Y-117.483
X94.95Y-112.782
X95.05Y-81.682
X95.1Y-64.3
X95.25Y-87.882
X95.25Y-114.782
X95.35Y-74.782
X95.4Y-61.8
X95.45Y-120.682
X95.55Y-109.983
X95.6Y-69.9
X95.65Y-76.682
X95.8Y-59.6
X95.85Y-116.483
X95.9Y-67.2
X96.45Y-135.382
X96.75Y-112.882
X96.85Y-84.382
X97.05Y-87.182
X97.162Y-119.67
X97.45Y-90.582
X97.5Y-57.7
X97.5Y-72.1
X97.75Y-110.082
X97.85Y-78.082
X98.65Y-88.483
X98.75Y-114.282
X99.05Y-85.582
X99.45Y-91.782
X99.7Y-67.7
X99.75Y-110.882
X100.05Y-112.182
X100.55Y-136.183
X100.75Y-78.483
X101.05Y-131.782
X101.45Y-120.982
X101.5Y-142.5
X101.604Y-135.882
X101.85Y-111.182
X101.9Y-69.7
X102.05Y-74.682
X102.4Y-67.3
X102.7Y-57.9
X102.75Y-75.682
X102.85Y-139.482
X103.15Y-136.882
X103.25Y-71.983
X103.25Y-86.382
X103.45Y-90.182
X103.65Y-80.182
X104.35Y-140.282
X104.35Y-144.183
X104.55Y-142.183
X104.95Y-110.182
X105.35Y-89.082
X105.4Y-67.4
X105.75Y-111.082
X105.95Y-92.682
X105.95Y-117.382
X106.15Y-140.382
X106.5Y-60.4
X106.55Y-142.482
X106.7Y-63.6
X106.75Y-86.382
X106.85Y-76.782
X107.45Y-109.382
X107.6Y-64.7
X107.75Y-143.382
X107.85Y-81.082
X108.1Y-57.9
X109.15Y-140.508
X109.25Y-132.082
X109.25Y-144.082
X109.55Y-142.882
X109.75Y-141.183
X109.95Y-84.382
X110.2Y-111.4
X110.35Y-67.782
X111.05Y-92.882
X111.15Y-140.382
X111.15Y-143.183
X111.45Y-108.182
X111.75Y-83.782
X111.75Y-130.982
X111.95Y-109.382
X112.15Y-114.682
X112.55Y-140.482
X112.55Y-144.082
X112.85Y-85.082
X113.15Y-141.782
X113.35Y-105.983
X113.4Y-62.7
X113.45Y-83.382
X114.1Y-94.8
X114.55Y-142.082
X114.75Y-103.483
X114.9Y-60.0
X115.05Y-144.382
X115.15Y-96.782
X115.45Y-111.983
X115.45Y-140.882
X115.65Y-92.082
X115.8Y-86.8
X115.85Y-83.483
X115.95Y-77.615
X116.15Y-142.482
X116.2Y-62.8
X116.25Y-78.815
X116.55Y-98.682
X116.55Y-101.902
X117.95Y-104.682
X118.0Y-60.2
X118.25Y-143.683
X118.35Y-141.982
X118.65Y-89.483
X119.05Y-78.915
X119.55Y-143.683
X120.0Y-62.7
X120.45Y-88.382
X120.8Y-61.1
X121.25Y-118.082
X121.65Y-77.615
X121.95Y-141.282
X122.0Y-57.7
X122.4Y-62.5
X122.45Y-117.582
X122.55Y-115.782
X122.55Y-116.782
X122.7Y-59.4
X122.75Y-106.483
X123.05Y-108.782
X123.25Y-111.983
X123.25Y-120.182
X123.75Y-142.183
X123.85Y-93.182
X123.9Y-85.832
X124.55Y-102.182
X124.9Y-63.8
X124.9Y-77.0
X125.15Y-98.282
X125.75Y-140.582
X125.85Y-96.782
X126.2Y-76.9
X126.35Y-110.082
X126.45Y-143.382
X126.75Y-86.983
X127.0Y-61.1
X127.1Y-90.7
X127.15Y-82.082
X127.25Y-92.483
X127.85Y-72.782
X127.95Y-75.483
X128.1Y-64.3
X128.45Y-82.882
X128.45Y-141.582
X128.55Y-78.682
X128.85Y-67.082
X129.05Y-110.282
X129.35Y-142.782
X130.25Y-140.982
X130.95Y-84.483
X131.2Y-61.5
X131.4Y-59.9
X131.45Y-91.983
X131.75Y-95.782
X131.95Y-86.182
X132.15Y-77.082
X132.6Y-62.2
X132.65Y-67.082
X132.65Y-143.782
X132.8Y-63.3
X133.0Y-75.3
X133.4Y-59.2
X133.4Y-87.8
X133.65Y-99.782
X133.85Y-112.882
X133.95Y-142.382
X134.35Y-140.782
X134.4Y-61.4
X134.799Y-73.532
X134.95Y-88.782
X135.25Y-75.582
X135.35Y-101.282
X135.35Y-141.082
X135.45Y-108.282
X136.3Y-64.1
X136.45Y-143.582
X136.65Y-141.982
X136.75Y-106.983
X137.1Y-60.4
X137.15Y-87.182
X137.25Y-102.782
X137.25Y-110.483
X137.35Y-101.182
X137.5Y-61.1
X137.65Y-77.682
X138.1Y-58.2
X138.1Y-62.8
X138.15Y-107.882
X138.25Y-143.382
X138.45Y-98.882
X138.65Y-82.483
X138.75Y-141.782
X138.95Y-74.182
X139.15Y-93.882
X139.431Y-121.101
X139.85Y-120.082
X139.95Y-83.682
X140.181Y-88.3
X140.55Y-115.682
X141.05Y-77.983
X141.05Y-88.505
X141.15Y-143.482
X141.65Y-140.782
X141.75Y-116.882
X141.8Y-64.8
X141.95Y-123.282
X142.15Y-119.382
X142.65Y-137.982
X142.681Y-85.1
X142.85Y-116.582
X142.95Y-142.482
X143.299Y-68.932
X144.05Y-132.582
X144.15Y-131.683
X144.299Y-73.932
X144.75Y-106.983
X145.25Y-109.582
X145.45Y-108.483
X146.25Y-143.082
X146.872Y-116.983
X146.95Y-134.482
X147.05Y-83.682
X147.05Y-107.782
X147.15Y-96.382
X147.499Y-79.182
X147.55Y-109.983
X147.55Y-133.582
X147.672Y-128.782
X147.95Y-112.682
X148.15Y-73.382
X148.45Y-133.092
X148.5Y-76.7
X148.75Y-110.582
X148.75Y-116.282
X149.45Y-132.782
X149.55Y-116.682
X149.8Y-74.9
X150.0Y-76.4
X150.1Y-77.8
X150.25Y-113.082
X150.5Y-63.7
X150.6Y-60.9
X150.872Y-131.683
X151.05Y-112.282
X151.2Y-73.9
X151.3Y-78.5
X151.5Y-62.1
X151.55Y-84.282
X151.65Y-117.282
X151.75Y-115.983
X152.05Y-110.582
X152.4Y-75.8
X152.5Y-60.3
X152.75Y-116.282
X152.9Y-63.6
X152.95Y-95.282
X153.04Y-132.072
X153.2Y-144.2
X153.4Y-78.1
X153.45Y-81.382
X153.45Y-108.382
X153.5Y-74.1
X153.65Y-119.182
X153.75Y-88.882
X153.85Y-112.382
X153.9Y-58.4
X153.91Y-130.282
X153.95Y-117.182
X153.95Y-126.982
X154.15Y-92.882
X154.25Y-118.582
X154.25Y-126.182
X154.25Y-128.782
X154.45Y-122.482
X154.8Y-77.7
X155.35Y-123.082
X155.4Y-61.8
X155.45Y-129.482
X155.45Y-131.082
X155.55Y-90.182
X155.6Y-60.8
X155.65Y-121.282
X155.8Y-66.5
X156.0Y-58.2
X156.35Y-94.282
X156.8Y-76.4
X156.85Y-110.782
X156.85Y-128.982
X156.9Y-69.1
X156.95Y-120.882
X157.15Y-111.582
X157.3Y-60.0
X157.45Y-89.082
X157.5Y-63.2
X157.65Y-130.882
X157.95Y-91.483
X158.4Y-144.4
X158.6Y-79.9
X158.65Y-107.483
X158.7Y-71.2
X159.15Y-122.882
X159.5Y-77.8
X159.65Y-107.382
X159.65Y-139.623
X159.95Y-117.582
X160.05Y-97.782
X160.25Y-94.382
X160.3Y-81.7
X160.35Y-91.182
X160.45Y-95.882
X160.51Y-129.782
X160.6Y-79.2
X160.85Y-119.082
X161.25Y-111.082
X161.4Y-89.9
X161.45Y-92.382
X161.9Y-80.0
X161.95Y-99.182
X162.05Y-102.582
X162.1Y-73.7
X162.25Y-107.483
X162.35Y-98.182
X162.45Y-106.382
X162.75Y-119.082
X162.814Y-111.947
X162.85Y-117.882
X163.05Y-102.582
X163.7Y-75.5
X163.75Y-104.382
X163.85Y-108.483
X163.95Y-115.882
X164.25Y-109.483
X164.25Y-130.882
X164.978Y-103.382
X165.6Y-144.2
X165.7Y-91.6
X166.0Y-79.8
X167.1Y-80.8
X167.45Y-86.382
X167.45Y-91.382
X168.3Y-80.0
X168.45Y-140.782
X169.0Y-98.2
X169.45Y-135.382
X169.9Y-58.9
X170.5Y-63.6
X170.6Y-61.9
X170.75Y-130.482
X171.2Y-98.5
X171.35Y-138.882
X171.4Y-144.3
X171.85Y-109.582
X172.1Y-57.2
X172.1Y-94.3
X172.3Y-96.9
X172.35Y-87.882
X173.4Y-92.4
X173.5Y-75.2
X173.7Y-76.2
X173.9Y-60.7
X174.0Y-73.3
X174.25Y-129.183
X174.35Y-121.282
X174.5Y-57.7
X174.6Y-134.4
X174.7Y-74.5
X174.75Y-118.382
X174.75Y-124.982
X174.75Y-139.882
X174.85Y-136.683
X175.25Y-116.682
X175.35Y-114.182
X175.4Y-74.6
X175.45Y-127.582
X175.5Y-81.1
X175.85Y-95.483
X175.95Y-123.982
X176.0Y-75.6
X176.1Y-73.2
X176.15Y-112.483
X176.35Y-119.182
X176.4Y-93.7
X176.7Y-73.7
X176.7Y-86.8
X176.7Y-97.3
X176.8Y-59.8
X177.0Y-57.9
X177.1Y-85.5
X177.2Y-72.0
X177.35Y-115.882
X177.35Y-132.782
X177.6Y-75.2
X177.7Y-136.7
X177.9Y-83.6
X177.95Y-102.182
X178.1Y-131.0
X178.3Y-59.0
X178.7Y-143.5
X179.25Y-119.882
X179.3Y-85.7
X179.45Y-134.683
X179.75Y-112.182
X180.15Y-95.382
X180.3Y-58.6
X180.3Y-60.2
X180.55Y-100.582
X180.7Y-105.1
X180.7Y-142.0
X180.9Y-60.2
X181.05Y-128.982
X181.1Y-143.8
X182.4Y-59.5
X182.5Y-85.5
X182.65Y-97.882
X182.85Y-103.382
X182.85Y-112.983
X182.85Y-117.582
X182.85Y-130.582
X182.9Y-133.2
X183.1Y-127.3
X183.2Y-57.8
X183.45Y-77.782
X183.45Y-142.183
X183.9Y-83.8
X184.3Y-58.3
X184.65Y-113.782
X184.9Y-83.2
X185.0Y-59.6
X185.05Y-96.983
X185.15Y-128.183
X185.45Y-98.782
X186.05Y-95.882
X186.55Y-143.183
X186.75Y-96.782
X186.8Y-64.6
X186.9Y-62.2
X187.0Y-84.7
X187.1Y-64.0
X187.4Y-59.9
X187.4Y-67.8
X187.5Y-57.9
X187.7Y-85.0
X187.75Y-99.682
X187.8Y-72.0
X188.0Y-86.3
X188.0Y-128.0
X188.25Y-113.483
X188.45Y-143.982
X188.7Y-61.6
X188.8Y-77.3
X188.9Y-75.5
X188.9Y-84.6
X189.85Y-96.282
X189.85Y-97.983
X190.1Y-100.6
X190.1Y-130.5
X190.2Y-84.0
X190.5Y-58.8
X190.5Y-61.0
X191.05Y-113.382
X191.45Y-90.782
X191.75Y-143.482
X192.0Y-76.2
X192.1Y-82.7
X192.15Y-129.282
X192.35Y-95.382
X192.35Y-99.983
X192.45Y-97.182
X192.7Y-62.0
X192.8Y-63.9
X193.8Y-81.6
X194.15Y-98.282
X194.2Y-63.2
X194.75Y-113.082
X194.8Y-79.0
X194.8Y-79.8
X194.8Y-144.1
X194.85Y-76.55
X194.9Y-61.6
X195.45Y-99.382
X195.5Y-58.7
X195.8Y-129.5
X196.15Y-90.382
X196.35Y-96.382
X196.55Y-142.382
X196.6Y-84.4
X197.4Y-80.4
X197.7Y-77.4
X198.5Y-142.1
X198.6Y-73.3
X198.912Y-84.757
X199.012Y-92.737
X199.112Y-107.858
X199.112Y-124.157
X199.212Y-139.91
X199.6Y-144.1
X199.7Y-75.8
X199.8Y-74.5
X200.2Y-66.7
X200.3Y-70.4
X200.5Y-71.9
X200.9Y-64.5
X200.95Y-141.082
X201.3Y-70.7
X201.45Y-142.882
X201.6Y-60.9
X201.9Y-66.4
X202.3Y-63.2
X202.35Y-128.382
X202.5Y-143.6
X202.6Y-66.6
X202.65Y-113.282
X202.9Y-58.5
X203.8Y-60.8
X203.8Y-84.0
X204.55Y-129.183
X204.65Y-97.282
X205.1Y-60.8
X205.6Y-57.9
X205.6Y-143.8
X205.8Y-83.8
X205.85Y-114.182
X206.05Y-112.483
X206.45Y-97.983
X206.45Y-127.282
X206.5Y-61.2
X207.35Y-129.782
X207.4Y-144.2
X207.95Y-98.582
X208.0Y-83.7
X208.1Y-67.7
X208.3Y-58.1
X208.65Y-128.482
X208.75Y-96.483
X208.85Y-114.983
X209.55Y-141.982
X209.75Y-112.382
X209.9Y-69.2
X210.15Y-142.683
X210.45Y-129.282
X210.8Y-144.1
X211.35Y-130.582
X211.75Y-97.882
X212.0Y-67.7
X212.15Y-129.082
X212.55Y-114.182
X213.0Y-84.1
X213.2Y-58.1
X213.45Y-98.282
X213.6Y-143.8
X213.8Y-67.0
X213.95Y-95.682
X214.15Y-138.082
X214.25Y-135.882
X214.45Y-104.182
X214.45Y-121.482
X214.5Y-91.1
X214.55Y-117.882
X214.55Y-124.182
X214.6Y-86.4
X214.65Y-112.983
X214.65Y-132.982
X214.65Y-139.482
X214.75Y-128.183
X214.85Y-141.482
X214.95Y-130.582
X215.0Y-88.8
X215.05Y-94.182
T3
X166.85Y-102.432
X168.85Y-102.432
X170.85Y-102.432
X172.85Y-102.432
T4
X163.25Y-83.282
X163.25Y-94.782
X165.25Y-83.282
X165.25Y-94.782
T5
X141.8Y-61.2
X146.8Y-61.2
T6
X103.17Y-126.002
X103.17Y-128.542
X105.71Y-126.002
X105.71Y-128.542
X108.25Y-126.002
X108.25Y-128.542
X110.79Y-126.002
X110.79Y-128.542
X113.33Y-126.002
X113.33Y-128.542
X115.87Y-126.002
X115.87Y-128.542
X118.41Y-126.002
X118.41Y-128.542
X118.91Y-71.275
X118.91Y-73.815
X120.95Y-126.002
X120.95Y-128.542
X121.45Y-71.275
X121.45Y-73.815
X123.99Y-71.275
X123.99Y-73.815
X126.53Y-71.275
X126.53Y-73.815
X129.07Y-71.275
X129.07Y-73.815
X151.081Y-99.66
X151.081Y-102.2
X151.081Y-104.74
X152.05Y-137.082
X152.05Y-139.623
X153.621Y-99.66
X153.621Y-102.2
X153.621Y-104.74
X154.59Y-137.082
X154.59Y-139.623
X157.13Y-137.082
X157.13Y-139.623
T7
X99.45Y-95.822
X99.45Y-100.902
X99.45Y-105.983
X207.612Y-87.657
X207.612Y-92.737
X207.612Y-102.777
X207.612Y-107.858
X207.625Y-118.852
X207.625Y-123.932
X208.012Y-134.377
X208.012Y-139.457
T8
X160.05Y-67.7
X164.75Y-64.7
X164.75Y-70.7
X201.95Y-77.682
X204.95Y-72.983
X207.95Y-77.682
T2
X140.8Y-58.85G85X140.8Y-58.15
G05
X147.8Y-58.15G85X147.8Y-58.85
G05
M30
