G04 #@! TF.GenerationSoftware,KiCad,Pcbnew,9.0.4*
G04 #@! TF.CreationDate,2025-11-09T11:05:49-07:00*
G04 #@! TF.ProjectId,ATMega_328_PU_Board,41544d65-6761-45f3-9332-385f50555f42,rev?*
G04 #@! TF.SameCoordinates,Original*
G04 #@! TF.FileFunction,Paste,Top*
G04 #@! TF.FilePolarity,Positive*
%FSLAX46Y46*%
G04 Gerber Fmt 4.6, Leading zero omitted, Abs format (unit mm)*
G04 Created by KiCad (PCBNEW 9.0.4) date 2025-11-09 11:05:49*
%MOMM*%
%LPD*%
G01*
G04 APERTURE LIST*
G04 Aperture macros list*
%AMRoundRect*
0 Rectangle with rounded corners*
0 $1 Rounding radius*
0 $2 $3 $4 $5 $6 $7 $8 $9 X,Y pos of 4 corners*
0 Add a 4 corners polygon primitive as box body*
4,1,4,$2,$3,$4,$5,$6,$7,$8,$9,$2,$3,0*
0 Add four circle primitives for the rounded corners*
1,1,$1+$1,$2,$3*
1,1,$1+$1,$4,$5*
1,1,$1+$1,$6,$7*
1,1,$1+$1,$8,$9*
0 Add four rect primitives between the rounded corners*
20,1,$1+$1,$2,$3,$4,$5,0*
20,1,$1+$1,$4,$5,$6,$7,0*
20,1,$1+$1,$6,$7,$8,$9,0*
20,1,$1+$1,$8,$9,$2,$3,0*%
G04 Aperture macros list end*
%ADD10RoundRect,0.250000X0.750000X1.500000X-0.750000X1.500000X-0.750000X-1.500000X0.750000X-1.500000X0*%
%ADD11R,0.800000X3.400000*%
%ADD12RoundRect,0.250000X-0.337500X-0.475000X0.337500X-0.475000X0.337500X0.475000X-0.337500X0.475000X0*%
%ADD13RoundRect,0.250000X0.337500X0.475000X-0.337500X0.475000X-0.337500X-0.475000X0.337500X-0.475000X0*%
%ADD14RoundRect,0.250000X-0.350000X-0.450000X0.350000X-0.450000X0.350000X0.450000X-0.350000X0.450000X0*%
%ADD15RoundRect,0.250000X-0.450000X0.350000X-0.450000X-0.350000X0.450000X-0.350000X0.450000X0.350000X0*%
%ADD16RoundRect,0.250000X-0.450000X0.325000X-0.450000X-0.325000X0.450000X-0.325000X0.450000X0.325000X0*%
%ADD17RoundRect,0.150000X-0.587500X-0.150000X0.587500X-0.150000X0.587500X0.150000X-0.587500X0.150000X0*%
%ADD18RoundRect,0.150000X-0.825000X-0.150000X0.825000X-0.150000X0.825000X0.150000X-0.825000X0.150000X0*%
%ADD19RoundRect,0.250000X0.450000X-0.350000X0.450000X0.350000X-0.450000X0.350000X-0.450000X-0.350000X0*%
%ADD20RoundRect,0.250000X0.350000X0.450000X-0.350000X0.450000X-0.350000X-0.450000X0.350000X-0.450000X0*%
%ADD21RoundRect,0.250000X-0.475000X0.337500X-0.475000X-0.337500X0.475000X-0.337500X0.475000X0.337500X0*%
%ADD22R,1.250000X1.000000*%
%ADD23RoundRect,0.250000X0.400000X1.450000X-0.400000X1.450000X-0.400000X-1.450000X0.400000X-1.450000X0*%
%ADD24RoundRect,0.250000X-0.325000X-0.450000X0.325000X-0.450000X0.325000X0.450000X-0.325000X0.450000X0*%
%ADD25RoundRect,0.250000X1.000000X0.650000X-1.000000X0.650000X-1.000000X-0.650000X1.000000X-0.650000X0*%
%ADD26RoundRect,0.150000X-0.150000X0.587500X-0.150000X-0.587500X0.150000X-0.587500X0.150000X0.587500X0*%
%ADD27RoundRect,0.150000X0.150000X-0.825000X0.150000X0.825000X-0.150000X0.825000X-0.150000X-0.825000X0*%
%ADD28RoundRect,0.137500X-0.600000X-0.137500X0.600000X-0.137500X0.600000X0.137500X-0.600000X0.137500X0*%
%ADD29RoundRect,0.137500X-0.137500X-0.600000X0.137500X-0.600000X0.137500X0.600000X-0.137500X0.600000X0*%
%ADD30RoundRect,0.250000X0.475000X-0.337500X0.475000X0.337500X-0.475000X0.337500X-0.475000X-0.337500X0*%
%ADD31RoundRect,0.225000X0.375000X-0.225000X0.375000X0.225000X-0.375000X0.225000X-0.375000X-0.225000X0*%
%ADD32RoundRect,0.250000X1.450000X-0.400000X1.450000X0.400000X-1.450000X0.400000X-1.450000X-0.400000X0*%
%ADD33RoundRect,0.250000X-0.650000X1.000000X-0.650000X-1.000000X0.650000X-1.000000X0.650000X1.000000X0*%
%ADD34RoundRect,0.250000X0.750000X-3.687500X0.750000X3.687500X-0.750000X3.687500X-0.750000X-3.687500X0*%
%ADD35RoundRect,0.375000X-0.375000X0.625000X-0.375000X-0.625000X0.375000X-0.625000X0.375000X0.625000X0*%
%ADD36RoundRect,0.500000X-1.400000X0.500000X-1.400000X-0.500000X1.400000X-0.500000X1.400000X0.500000X0*%
%ADD37RoundRect,0.250000X-0.350000X0.275000X-0.350000X-0.275000X0.350000X-0.275000X0.350000X0.275000X0*%
%ADD38RoundRect,0.225000X0.225000X0.375000X-0.225000X0.375000X-0.225000X-0.375000X0.225000X-0.375000X0*%
%ADD39RoundRect,0.250001X-0.462499X-0.624999X0.462499X-0.624999X0.462499X0.624999X-0.462499X0.624999X0*%
%ADD40RoundRect,0.237500X-0.300000X-0.237500X0.300000X-0.237500X0.300000X0.237500X-0.300000X0.237500X0*%
%ADD41R,0.400000X1.350000*%
%ADD42R,1.500000X1.900000*%
%ADD43RoundRect,0.250000X-0.320000X-0.320000X0.320000X-0.320000X0.320000X0.320000X-0.320000X0.320000X0*%
%ADD44RoundRect,0.075000X-0.437500X-0.075000X0.437500X-0.075000X0.437500X0.075000X-0.437500X0.075000X0*%
%ADD45RoundRect,0.075000X-0.075000X-0.437500X0.075000X-0.437500X0.075000X0.437500X-0.075000X0.437500X0*%
%ADD46RoundRect,0.225000X-0.375000X0.225000X-0.375000X-0.225000X0.375000X-0.225000X0.375000X0.225000X0*%
%ADD47RoundRect,0.150000X0.512500X0.150000X-0.512500X0.150000X-0.512500X-0.150000X0.512500X-0.150000X0*%
G04 APERTURE END LIST*
D10*
X111474664Y-96302500D03*
D11*
X109449664Y-96302500D03*
D10*
X107424664Y-96302500D03*
D12*
X103292164Y-132502500D03*
X105367164Y-132502500D03*
D13*
X126587164Y-134782500D03*
X124512164Y-134782500D03*
D14*
X188000000Y-74100000D03*
X190000000Y-74100000D03*
D13*
X171024664Y-95682500D03*
X168949664Y-95682500D03*
D15*
X146209664Y-114002500D03*
X146209664Y-116002500D03*
D14*
X202600000Y-68700000D03*
X204600000Y-68700000D03*
D16*
X146681250Y-98975000D03*
X146681250Y-101025000D03*
D17*
X174400000Y-69400000D03*
X174400000Y-71300000D03*
X176275000Y-70350000D03*
D12*
X127706250Y-97600000D03*
X129781250Y-97600000D03*
D18*
X193219664Y-66742500D03*
X193219664Y-68012500D03*
X193219664Y-69282500D03*
X193219664Y-70552500D03*
X198169664Y-70552500D03*
X198169664Y-69282500D03*
X198169664Y-68012500D03*
X198169664Y-66742500D03*
D19*
X113329664Y-134302500D03*
X113329664Y-132302500D03*
D14*
X183774664Y-108182500D03*
X185774664Y-108182500D03*
D20*
X196912164Y-124257500D03*
X194912164Y-124257500D03*
X120449664Y-80415000D03*
X118449664Y-80415000D03*
D16*
X144181250Y-98875000D03*
X144181250Y-100925000D03*
D21*
X187300000Y-80262500D03*
X187300000Y-82337500D03*
D20*
X196512164Y-139910000D03*
X194512164Y-139910000D03*
X120249664Y-103002500D03*
X118249664Y-103002500D03*
D22*
X155334664Y-114302500D03*
X163084664Y-114302500D03*
D14*
X176900000Y-63100000D03*
X178900000Y-63100000D03*
D15*
X114049664Y-87182500D03*
X114049664Y-89182500D03*
D23*
X171300000Y-75000000D03*
X166850000Y-75000000D03*
D12*
X127706250Y-80100000D03*
X129781250Y-80100000D03*
D19*
X115829664Y-134302500D03*
X115829664Y-132302500D03*
X144081250Y-105200000D03*
X144081250Y-103200000D03*
D20*
X162709664Y-128102500D03*
X160709664Y-128102500D03*
D17*
X186387164Y-117457500D03*
X186387164Y-119357500D03*
X188262164Y-118407500D03*
D24*
X190319664Y-139910000D03*
X192369664Y-139910000D03*
D25*
X194992164Y-87235000D03*
X190992164Y-87235000D03*
D20*
X121049664Y-85382500D03*
X119049664Y-85382500D03*
D14*
X182600000Y-62800000D03*
X184600000Y-62800000D03*
D19*
X115929664Y-121502500D03*
X115929664Y-119502500D03*
D26*
X190750000Y-65925000D03*
X188850000Y-65925000D03*
X189800000Y-67800000D03*
D19*
X120829664Y-121602500D03*
X120829664Y-119602500D03*
D14*
X178392164Y-93035000D03*
X180392164Y-93035000D03*
D19*
X110729664Y-121502500D03*
X110729664Y-119502500D03*
D17*
X186444664Y-132760000D03*
X186444664Y-134660000D03*
X188319664Y-133710000D03*
D12*
X196762500Y-64100000D03*
X198837500Y-64100000D03*
D19*
X146881250Y-105200000D03*
X146881250Y-103200000D03*
X113329664Y-121502500D03*
X113329664Y-119502500D03*
D27*
X130579664Y-108420000D03*
X131849664Y-108420000D03*
X133119664Y-108420000D03*
X134389664Y-108420000D03*
X134389664Y-103470000D03*
X133119664Y-103470000D03*
X131849664Y-103470000D03*
X130579664Y-103470000D03*
D25*
X195812164Y-118457500D03*
X191812164Y-118457500D03*
D19*
X118429664Y-134202500D03*
X118429664Y-132202500D03*
D28*
X142531250Y-86782500D03*
X142531250Y-87582500D03*
X142531250Y-88382500D03*
X142531250Y-89182500D03*
X142531250Y-89982500D03*
X142531250Y-90782500D03*
X142531250Y-91582500D03*
X142531250Y-92382500D03*
D29*
X143893750Y-93745000D03*
X144693750Y-93745000D03*
X145493750Y-93745000D03*
X146293750Y-93745000D03*
X147093750Y-93745000D03*
X147893750Y-93745000D03*
X148693750Y-93745000D03*
X149493750Y-93745000D03*
D28*
X150856250Y-92382500D03*
X150856250Y-91582500D03*
X150856250Y-90782500D03*
X150856250Y-89982500D03*
X150856250Y-89182500D03*
X150856250Y-88382500D03*
X150856250Y-87582500D03*
X150856250Y-86782500D03*
D29*
X149493750Y-85420000D03*
X148693750Y-85420000D03*
X147893750Y-85420000D03*
X147093750Y-85420000D03*
X146293750Y-85420000D03*
X145493750Y-85420000D03*
X144693750Y-85420000D03*
X143893750Y-85420000D03*
D21*
X137949664Y-117407500D03*
X137949664Y-119482500D03*
D14*
X179687164Y-124557500D03*
X181687164Y-124557500D03*
D30*
X148381250Y-83100000D03*
X148381250Y-81025000D03*
D31*
X185600000Y-72250000D03*
X185600000Y-68950000D03*
D21*
X124549664Y-103782500D03*
X124549664Y-105857500D03*
D24*
X188292164Y-92935000D03*
X190342164Y-92935000D03*
D14*
X166309664Y-124202500D03*
X168309664Y-124202500D03*
D16*
X198912164Y-79107500D03*
X198912164Y-81157500D03*
D19*
X105649664Y-136782500D03*
X105649664Y-134782500D03*
D16*
X204700000Y-64050000D03*
X204700000Y-66100000D03*
D15*
X129781250Y-87600000D03*
X129781250Y-89600000D03*
D28*
X143909664Y-120102500D03*
X143909664Y-120902500D03*
X143909664Y-121702500D03*
X143909664Y-122502500D03*
X143909664Y-123302500D03*
X143909664Y-124102500D03*
X143909664Y-124902500D03*
X143909664Y-125702500D03*
D29*
X145272164Y-127065000D03*
X146072164Y-127065000D03*
X146872164Y-127065000D03*
X147672164Y-127065000D03*
X148472164Y-127065000D03*
X149272164Y-127065000D03*
X150072164Y-127065000D03*
X150872164Y-127065000D03*
D28*
X152234664Y-125702500D03*
X152234664Y-124902500D03*
X152234664Y-124102500D03*
X152234664Y-123302500D03*
X152234664Y-122502500D03*
X152234664Y-121702500D03*
X152234664Y-120902500D03*
X152234664Y-120102500D03*
D29*
X150872164Y-118740000D03*
X150072164Y-118740000D03*
X149272164Y-118740000D03*
X148472164Y-118740000D03*
X147672164Y-118740000D03*
X146872164Y-118740000D03*
X146072164Y-118740000D03*
X145272164Y-118740000D03*
D32*
X147798750Y-71157500D03*
X147798750Y-66707500D03*
D24*
X189474664Y-108382500D03*
X191524664Y-108382500D03*
D19*
X168749664Y-110682500D03*
X168749664Y-108682500D03*
X108029664Y-138102500D03*
X108029664Y-136102500D03*
X110829664Y-134502500D03*
X110829664Y-132502500D03*
D33*
X179700000Y-67400000D03*
X179700000Y-71400000D03*
D15*
X142249664Y-73782500D03*
X142249664Y-75782500D03*
D34*
X135281250Y-94537500D03*
X135281250Y-82662500D03*
D20*
X196649664Y-107882500D03*
X194649664Y-107882500D03*
X181674664Y-108182500D03*
X179674664Y-108182500D03*
D17*
X185117164Y-86835000D03*
X185117164Y-88735000D03*
X186992164Y-87785000D03*
D13*
X99287164Y-129782500D03*
X97212164Y-129782500D03*
D15*
X144209664Y-114002500D03*
X144209664Y-116002500D03*
D14*
X104549664Y-84782500D03*
X106549664Y-84782500D03*
D35*
X174549664Y-83482500D03*
X172249664Y-83482500D03*
D36*
X172249664Y-89782500D03*
D35*
X169949664Y-83482500D03*
D37*
X134798750Y-69432500D03*
X134798750Y-71732500D03*
D25*
X195974664Y-103082500D03*
X191974664Y-103082500D03*
D15*
X120149664Y-98702500D03*
X120149664Y-100702500D03*
D37*
X158109664Y-124752500D03*
X158109664Y-127052500D03*
D12*
X160472164Y-124702500D03*
X162547164Y-124702500D03*
D19*
X120929664Y-134102500D03*
X120929664Y-132102500D03*
D14*
X179819664Y-139910000D03*
X181819664Y-139910000D03*
D12*
X172025000Y-65700000D03*
X174100000Y-65700000D03*
D25*
X196519664Y-133710000D03*
X192519664Y-133710000D03*
D14*
X182992164Y-92935000D03*
X184992164Y-92935000D03*
D24*
X190012164Y-124257500D03*
X192062164Y-124257500D03*
D15*
X126049664Y-124282500D03*
X126049664Y-126282500D03*
X144798750Y-75432500D03*
X144798750Y-77432500D03*
X154781250Y-84600000D03*
X154781250Y-86600000D03*
D38*
X163759664Y-121002500D03*
X160459664Y-121002500D03*
D14*
X185119664Y-140010000D03*
X187119664Y-140010000D03*
X103529664Y-121502500D03*
X105529664Y-121502500D03*
D30*
X184600000Y-67037500D03*
X184600000Y-64962500D03*
D39*
X97162164Y-126282500D03*
X100137164Y-126282500D03*
D20*
X195692164Y-92835000D03*
X193692164Y-92835000D03*
D26*
X120249664Y-110402500D03*
X118349664Y-110402500D03*
X119299664Y-112277500D03*
D13*
X107287164Y-79715000D03*
X105212164Y-79715000D03*
X126549664Y-116282500D03*
X124474664Y-116282500D03*
D19*
X118429664Y-121502500D03*
X118429664Y-119502500D03*
D30*
X127649664Y-105420000D03*
X127649664Y-103345000D03*
X155709664Y-126977500D03*
X155709664Y-124902500D03*
D17*
X186274664Y-102382500D03*
X186274664Y-104282500D03*
X188149664Y-103332500D03*
D40*
X139936250Y-67932500D03*
X141661250Y-67932500D03*
D14*
X118149664Y-96282500D03*
X120149664Y-96282500D03*
D20*
X131049664Y-113182500D03*
X129049664Y-113182500D03*
D21*
X139781250Y-89562500D03*
X139781250Y-91637500D03*
D10*
X111574664Y-103002500D03*
D11*
X109549664Y-103002500D03*
D10*
X107524664Y-103002500D03*
D34*
X131549664Y-131682500D03*
X131549664Y-119807500D03*
D14*
X164149664Y-106182500D03*
X166149664Y-106182500D03*
X184987164Y-124357500D03*
X186987164Y-124357500D03*
D40*
X139936250Y-71432500D03*
X141661250Y-71432500D03*
D19*
X112049664Y-89182500D03*
X112049664Y-87182500D03*
X108229664Y-121502500D03*
X108229664Y-119502500D03*
D41*
X145600000Y-61200000D03*
X144950000Y-61200000D03*
X144300000Y-61200000D03*
X143650000Y-61200000D03*
X143000000Y-61200000D03*
D42*
X145300000Y-58500000D03*
X143300000Y-58500000D03*
D43*
X110729664Y-78075000D03*
X110729664Y-79495000D03*
X110729664Y-80915000D03*
X112149664Y-78075000D03*
X112149664Y-79495000D03*
X112149664Y-80915000D03*
X113569664Y-78075000D03*
X113569664Y-79495000D03*
X113569664Y-80915000D03*
D44*
X109312164Y-77545000D03*
X109312164Y-78195000D03*
X109312164Y-78845000D03*
X109312164Y-79495000D03*
X109312164Y-80145000D03*
X109312164Y-80795000D03*
X109312164Y-81445000D03*
D45*
X110199664Y-82332500D03*
X110849664Y-82332500D03*
X111499664Y-82332500D03*
X112149664Y-82332500D03*
X112799664Y-82332500D03*
X113449664Y-82332500D03*
X114099664Y-82332500D03*
D44*
X114987164Y-81445000D03*
X114987164Y-80795000D03*
X114987164Y-80145000D03*
X114987164Y-79495000D03*
X114987164Y-78845000D03*
X114987164Y-78195000D03*
X114987164Y-77545000D03*
D45*
X114099664Y-76657500D03*
X113449664Y-76657500D03*
X112799664Y-76657500D03*
X112149664Y-76657500D03*
X111499664Y-76657500D03*
X110849664Y-76657500D03*
X110199664Y-76657500D03*
D46*
X158281250Y-83300000D03*
X158281250Y-86600000D03*
D14*
X192500000Y-74100000D03*
X194500000Y-74100000D03*
D47*
X187700000Y-78300000D03*
X187700000Y-76400000D03*
X189975000Y-76400000D03*
X189975000Y-77350000D03*
X189975000Y-78300000D03*
M02*
